<?xml version="1.0" encoding="UTF-8" standalone="no"?>
<svg
   viewBox="0 0 128 128"
   version="1.1"
   id="svg190"
   sodipodi:docname="css3-original.svg"
   inkscape:export-filename="/home/wombat/Documents/Portfolio/assets/icons/css3-original.png"
   inkscape:export-xdpi="96"
   inkscape:export-ydpi="96"
   inkscape:version="1.1 (c4e8f9ed74, 2021-05-24)"
   xmlns:inkscape="http://www.inkscape.org/namespaces/inkscape"
   xmlns:sodipodi="http://sodipodi.sourceforge.net/DTD/sodipodi-0.dtd"
   xmlns="http://www.w3.org/2000/svg"
   xmlns:svg="http://www.w3.org/2000/svg">
  <defs
     id="defs194" />
  <sodipodi:namedview
     id="namedview192"
     pagecolor="#ffffff"
     bordercolor="#666666"
     borderopacity="1.0"
     inkscape:pageshadow="2"
     inkscape:pageopacity="0.0"
     inkscape:pagecheckerboard="0"
     showgrid="false"
     inkscape:zoom="5.6796875"
     inkscape:cx="64"
     inkscape:cy="64"
     inkscape:window-width="951"
     inkscape:window-height="518"
     inkscape:window-x="4"
     inkscape:window-y="4"
     inkscape:window-maximized="1"
     inkscape:current-layer="svg190" />
  <path
     fill="#1572B6"
     d="M18.814 114.123l-10.054-112.771h110.48l-10.064 112.754-45.243 12.543-45.119-12.526z"
     id="path178" />
  <path
     fill="#33A9DC"
     d="M64.001 117.062l36.559-10.136 8.601-96.354h-45.16v106.49z"
     id="path180" />
  <path
     fill="#fff"
     d="M64.001 51.429h18.302l1.264-14.163h-19.566v-13.831h34.681999999999995l-.332 3.711-3.4 38.114h-30.95v-13.831z"
     id="path182" />
  <path
     fill="#EBEBEB"
     d="M64.083 87.349l-.061.018-15.403-4.159-.985-11.031h-13.882l1.937 21.717 28.331 7.863.063-.018v-14.39z"
     id="path184" />
  <path
     fill="#fff"
     d="M81.127 64.675l-1.666 18.522-15.426 4.164v14.39l28.354-7.858.208-2.337 2.406-26.881h-13.876z"
     id="path186" />
  <path
     fill="#EBEBEB"
     d="M64.048 23.435v13.831000000000001h-33.407999999999994l-.277-3.108-.63-7.012-.331-3.711h34.646zM64.001 51.431v13.831000000000001h-15.209l-.277-3.108-.631-7.012-.33-3.711h16.447z"
     id="path188" />
</svg>
